<svg width="20" height="20" viewBox="0 0 20 20" fill="none" xmlns="http://www.w3.org/2000/svg">
<path d="M7.25 4C8.07843 4 8.75 4.67157 8.75 5.5V11.25H14.75C15.5784 11.25 16.25 11.9216 16.25 12.75V18.5C16.25 19.3284 15.5784 20 14.75 20H1.5C0.671573 20 0 19.3284 0 18.5V5.5C0 4.67157 0.671573 4 1.5 4H7.25ZM1.5 18.5H7.25V12.75H1.5V18.5ZM8.75 18.5H14.75V12.75H8.75V18.5ZM1.5 11.25H7.25V5.5H1.5V11.25ZM18.5 0C19.3284 0 20 0.671573 20 1.5V7.25C20 8.02666 19.4097 8.66539 18.6533 8.74219L18.5 8.75H12.75L12.5967 8.74219C11.8907 8.67051 11.3295 8.10931 11.2578 7.40332L11.25 7.25V1.5C11.25 0.671573 11.9216 2.21463e-08 12.75 0H18.5ZM12.75 7.25H18.5V1.5H12.75V7.25Z" fill="#1E1E1E"/>
</svg>
