<svg width="14" height="15" viewBox="0 0 14 15" fill="none" xmlns="http://www.w3.org/2000/svg">
<path fill-rule="evenodd" clip-rule="evenodd" d="M10.5 0C10.7761 0 11 0.223858 11 0.5V1H12.5C13.3284 1 14 1.67157 14 2.5V13.5C13.9998 14.3283 13.3283 15 12.5 15H1.5C0.671756 14.9999 0.000202812 14.3282 0 13.5V2.5C2.01321e-08 1.67162 0.671631 1.00007 1.5 1H3V0.5C3 0.223898 3.22391 6.60074e-05 3.5 0C3.77614 0 4 0.223858 4 0.5V1H10V0.5C10 0.223898 10.2239 6.60074e-05 10.5 0ZM1 13.5C1.0002 13.7759 1.22404 13.9999 1.5 14H12.5C12.776 14 12.9998 13.776 13 13.5V6H1V13.5ZM1.5 2C1.22392 2.00007 1 2.2239 1 2.5V5H13V2.5C13 2.22386 12.7761 2 12.5 2H11V3.5C10.9998 3.77597 10.776 4 10.5 4C10.224 3.99993 10.0002 3.77593 10 3.5V2H4V3.5C3.9998 3.77597 3.77602 4 3.5 4C3.22404 3.99993 3.0002 3.77593 3 3.5V2H1.5Z" fill="#1E1E1E"/>
</svg>
