<svg width="14" height="19" viewBox="0 0 14 19" fill="none" xmlns="http://www.w3.org/2000/svg">
<path d="M7 0C9.13235 0 10.8171 0.269364 11.9914 0.736389C13.1205 1.18551 14 1.92117 14 2.96875V16.0312C14 17.0788 13.1205 17.8145 11.9914 18.2636C10.8171 18.7306 9.13235 19 7 19C4.86765 19 3.18289 18.7306 2.00863 18.2636C0.879479 17.8145 0 17.0788 0 16.0312V2.96875C0 1.92117 0.879479 1.18551 2.00863 0.736389C3.18289 0.269364 4.86765 0 7 0ZM12.8333 13.386C12.5786 13.5482 12.2942 13.69 11.9914 13.8105C10.8171 14.2775 9.13235 14.5469 7 14.5469C4.86765 14.5469 3.18289 14.2775 2.00863 13.8105C1.70581 13.69 1.42142 13.5482 1.16667 13.386V16.0312C1.16667 16.2953 1.40153 16.7468 2.43359 17.1573C3.42062 17.5498 4.94423 17.8125 7 17.8125C9.05577 17.8125 10.5794 17.5498 11.5664 17.1573C12.5985 16.7468 12.8333 16.2953 12.8333 16.0312V13.386ZM12.8333 9.2298C12.5786 9.39195 12.2942 9.53379 11.9914 9.65424C10.8171 10.1213 9.13235 10.3906 7 10.3906C4.86765 10.3906 3.18289 10.1213 2.00863 9.65424C1.70581 9.53379 1.42142 9.39195 1.16667 9.2298V11.5781C1.16667 11.8422 1.40153 12.2937 2.43359 12.7042C3.42062 13.0967 4.94423 13.3594 7 13.3594C9.05577 13.3594 10.5794 13.0967 11.5664 12.7042C12.5985 12.2937 12.8333 11.8422 12.8333 11.5781V9.2298ZM12.8333 4.77667C12.5786 4.93883 12.2942 5.08066 11.9914 5.20111C10.8171 5.66814 9.13235 5.9375 7 5.9375C4.86765 5.9375 3.18289 5.66814 2.00863 5.20111C1.70581 5.08066 1.42142 4.93883 1.16667 4.77667V7.42188C1.16667 7.68592 1.40153 8.13745 2.43359 8.54791C3.42062 8.94046 4.94423 9.20312 7 9.20312C9.05577 9.20312 10.5794 8.94046 11.5664 8.54791C12.5985 8.13745 12.8333 7.68592 12.8333 7.42188V4.77667ZM7 1.1875C4.94423 1.1875 3.42062 1.45017 2.43359 1.84271C1.40153 2.25318 1.16667 2.70471 1.16667 2.96875C1.16667 3.23279 1.40153 3.68432 2.43359 4.09479C3.42062 4.48733 4.94423 4.75 7 4.75C9.05577 4.75 10.5794 4.48733 11.5664 4.09479C12.5985 3.68432 12.8333 3.23279 12.8333 2.96875C12.8333 2.70471 12.5985 2.25318 11.5664 1.84271C10.5794 1.45017 9.05577 1.1875 7 1.1875Z" fill="#1E1E1E"/>
</svg>
