<svg width="18" height="19" viewBox="0 0 18 19" fill="none" xmlns="http://www.w3.org/2000/svg">
<path fill-rule="evenodd" clip-rule="evenodd" d="M8.92429 10.0498C10.8114 10.0498 12.7921 10.3277 14.4282 11.2021C16.0999 12.0957 17.3724 13.5941 17.8159 15.9072C18.0478 17.1172 17.0423 18.0497 15.9653 18.0498H1.88327C0.806276 18.0496 -0.198287 17.1172 0.0336627 15.9072C0.477184 13.5939 1.74945 12.0957 3.42136 11.2021C5.05741 10.3278 7.03727 10.0498 8.92429 10.0498ZM8.92429 11.5498C7.15407 11.5498 5.45566 11.8161 4.12839 12.5254C2.83698 13.2156 1.86064 14.3415 1.50632 16.1895C1.4899 16.2751 1.51242 16.3526 1.57468 16.4209C1.64175 16.4943 1.75191 16.5497 1.88327 16.5498H15.9653C16.0967 16.5498 16.2068 16.4943 16.2739 16.4209C16.3362 16.3526 16.3587 16.2751 16.3423 16.1895C15.988 14.3418 15.0123 13.2156 13.7212 12.5254C12.3938 11.816 10.6946 11.5498 8.92429 11.5498ZM8.92429 0C11.2715 0 13.1743 1.90279 13.1743 4.25C13.1743 6.59721 11.2715 8.5 8.92429 8.5C6.57715 8.49992 4.67429 6.59716 4.67429 4.25C4.67429 1.90284 6.57715 8.01437e-05 8.92429 0ZM8.92429 1.5C7.40557 1.50008 6.17429 2.73127 6.17429 4.25C6.17429 5.76873 7.40557 6.99992 8.92429 7C10.4431 7 11.6743 5.76878 11.6743 4.25C11.6743 2.73122 10.4431 1.5 8.92429 1.5Z" fill="#1E1E1E"/>
</svg>
