<svg width="20" height="18" viewBox="0 0 20 18" fill="none" xmlns="http://www.w3.org/2000/svg">
<path fill-rule="evenodd" clip-rule="evenodd" d="M13.1104 0.108242C13.8877 -0.0806956 14.7456 -0.0360471 15.6504 0.354336L15.832 0.437344L15.8857 0.465664C18.3097 1.88198 18.5509 5.15583 17.0967 7.70492C16.8454 8.14528 16.5426 8.56386 16.21 8.96078L16.6221 8.78891C18.2272 8.11597 19.9998 9.29451 20 11.035C20 11.7501 19.6857 12.4296 19.1406 12.8924L16.498 15.1366C16.1206 15.4571 15.7128 15.7405 15.2812 15.9832L13.4658 17.0047C12.3058 17.6572 10.9969 17.9998 9.66602 17.9998H1.5C0.671625 17.9998 8.45199e-05 17.3282 0 16.4998V11.4998C1.20799e-08 10.6714 0.671573 9.99984 1.5 9.99984H4.49902L4.63672 9.87191C3.97424 9.22925 3.35923 8.50393 2.90332 7.70492C1.44911 5.15584 1.69027 1.88199 4.11426 0.465664C4.13179 0.45542 4.14966 0.445156 4.16797 0.436367C5.13943 -0.0295212 6.06062 -0.0932798 6.88965 0.108242C7.70253 0.305891 8.38039 0.747159 8.91309 1.22152C9.35654 1.61643 9.71918 2.05509 9.99902 2.44223C10.2789 2.05502 10.6423 1.61659 11.0859 1.22152C11.6187 0.747143 12.2974 0.305873 13.1104 0.108242ZM1.5 16.4998H3.5V11.4998H1.5V16.4998ZM8.05273 8.99984C7.88595 8.99984 7.7251 9.06252 7.60254 9.17562L5 11.578V16.4998H9.66602C10.7393 16.4998 11.795 16.2233 12.7305 15.6971L14.5459 14.6756C14.894 14.4798 15.2229 14.2515 15.5273 13.993L18.1699 11.7489C18.3793 11.571 18.5 11.3097 18.5 11.035C18.4998 10.3664 17.8188 9.91344 17.2021 10.1717L12.7051 12.0584C12.6739 12.0715 12.6417 12.0821 12.6104 12.0946C12.2186 12.3495 11.7523 12.4998 11.25 12.4998H9.5L9.42285 12.4959C9.04493 12.4573 8.75008 12.1379 8.75 11.7498C8.75 11.3356 9.08579 10.9998 9.5 10.9998H10.5078C10.9814 10.9998 11.4508 10.9176 11.8965 10.7606C12.1121 10.5772 12.25 10.3051 12.25 9.99984C12.25 9.44756 11.8023 8.99984 11.25 8.99984H8.05273ZM15.1543 1.77621C14.5011 1.46996 13.9438 1.44891 13.4648 1.56527C12.9629 1.68728 12.4983 1.9728 12.084 2.34164C11.2454 3.08834 10.7399 4.06093 10.6787 4.18344C10.5596 4.42178 10.3083 4.6042 10 4.60434C9.69149 4.60432 9.43946 4.42189 9.32031 4.18344C9.25904 4.06079 8.75429 3.08823 7.91602 2.34164C7.5018 1.97278 7.03706 1.68728 6.53516 1.56527C6.05604 1.44883 5.49829 1.46957 4.84473 1.77621C3.42432 2.62976 2.9908 4.83015 4.20703 6.96176C4.59015 7.63314 5.13 8.2682 5.74023 8.85238L6.58496 8.07406C6.98461 7.70515 7.50885 7.49984 8.05273 7.49984H11.25C12.4153 7.49984 13.3909 8.29793 13.668 9.3768C14.517 8.65735 15.2926 7.83865 15.793 6.96176C17.0094 4.82979 16.5753 2.62945 15.1543 1.77621Z" fill="#1E1E1E"/>
</svg>
