<svg width="20" height="19" viewBox="0 0 20 19" fill="none" xmlns="http://www.w3.org/2000/svg">
<path d="M0.75 0C1.16421 4.13021e-07 1.5 0.335787 1.5 0.75V11.1875L6.5498 7.40039C6.83977 7.18292 7.24392 7.20381 7.50977 7.4502L12.0361 11.6445L17.96 6.91406C18.2836 6.65557 18.7562 6.70857 19.0146 7.03223C19.2728 7.35581 19.2198 7.82751 18.8965 8.08594L12.4678 13.2197C12.1778 13.4513 11.7624 13.4358 11.4902 13.1836L6.94922 8.97461L1.5 13.0615V17.5H18.25C18.6642 17.5 19 17.8358 19 18.25C19 18.6642 18.6642 19 18.25 19H0.75C0.335786 19 0 18.6642 0 18.25V0.75C-3.88268e-10 0.335787 0.335786 1.81058e-08 0.75 0Z" fill="#1E1E1E"/>
</svg>
