<svg width="17" height="20" viewBox="0 0 17 20" fill="none" xmlns="http://www.w3.org/2000/svg">
<path fill-rule="evenodd" clip-rule="evenodd" d="M8.50002 0C9.07024 2.04061e-05 9.51778 0.129611 9.91017 0.354492C10.2667 0.558872 10.5676 0.841634 10.8057 1.05078C11.281 1.46829 11.8648 1.94453 13.2227 2.23633C13.8838 2.37841 14.4091 2.49129 14.8096 2.59961C15.1962 2.7042 15.5615 2.82692 15.8467 3.03027C16.0527 3.17718 16.2371 3.33446 16.3985 3.53418C16.5596 3.73371 16.6742 3.94669 16.7744 4.17871C16.9066 4.48461 16.9549 4.81285 16.9776 5.1582C17 5.50148 17 5.92913 17 6.4502V8.30664C17 10.6097 17.0085 11.9297 16.6211 13.123C16.286 14.1552 15.7374 15.1062 15.0117 15.9131C14.1727 16.8458 13.0257 17.4985 11.0322 18.6514L10.1123 19.1836C9.70772 19.4176 9.36021 19.6297 8.97365 19.709C8.65687 19.7738 8.32968 19.7692 8.01466 19.6963C7.63014 19.6072 7.28829 19.3869 6.88967 19.1426L5.70509 18.417C3.79606 17.2469 2.69839 16.5833 1.8965 15.6592C1.20273 14.8596 0.679561 13.9263 0.360368 12.917C-0.00849771 11.7504 1.59976e-05 10.4675 1.666e-05 8.22852V6.4502C1.66568e-05 5.92913 8.04516e-06 5.50148 0.0224776 5.1582C0.0450963 4.81286 0.0934726 4.48461 0.225603 4.17871C0.325847 3.94673 0.440439 3.73368 0.601579 3.53418C0.762927 3.33452 0.947355 3.17714 1.15334 3.03027C1.43854 2.82699 1.80384 2.70419 2.19045 2.59961C2.59095 2.4913 3.11626 2.3784 3.77736 2.23633C5.13506 1.94453 5.71904 1.46827 6.19435 1.05078C6.43243 0.841648 6.73338 0.558828 7.08986 0.354492C7.48223 0.129665 7.92983 1.78782e-07 8.50002 0ZM8.50002 1.5C8.18022 1.5 7.99144 1.56626 7.83595 1.65527C7.64479 1.76483 7.48478 1.91405 7.18459 2.17773C6.58253 2.70655 5.77389 3.34083 4.09279 3.70215C3.4149 3.84783 2.93541 3.95132 2.58205 4.04688C2.21525 4.14609 2.07604 4.21524 2.02443 4.25195C1.88681 4.35008 1.81679 4.41694 1.76857 4.47656C1.72037 4.53623 1.66963 4.61917 1.60256 4.77441C1.57083 4.84804 1.53693 4.97593 1.51857 5.25586C1.50006 5.53867 1.50002 5.90893 1.50002 6.4502V8.22852C1.50002 10.5654 1.5085 11.5713 1.79103 12.4648C2.04842 13.2787 2.46997 14.031 3.02931 14.6758C3.64355 15.3837 4.49662 15.9164 6.48927 17.1377L7.67384 17.8633C8.16153 18.1622 8.26304 18.2144 8.35353 18.2354C8.4584 18.2596 8.56743 18.2609 8.67287 18.2393C8.76379 18.2206 8.86685 18.1717 9.36134 17.8857L10.2813 17.3535C12.3625 16.1499 13.2538 15.6237 13.8965 14.9092C14.4816 14.2586 14.9241 13.4924 15.1944 12.6602C15.491 11.7462 15.5 10.7108 15.5 8.30664V6.4502C15.5 5.90893 15.5 5.53867 15.4815 5.25586C15.4631 4.97592 15.4292 4.84804 15.3975 4.77441C15.3304 4.61911 15.2797 4.53624 15.2315 4.47656C15.1832 4.4169 15.1133 4.35015 14.9756 4.25195C14.9241 4.21528 14.7852 4.1462 14.418 4.04688C14.0646 3.95131 13.5852 3.84784 12.9072 3.70215C11.226 3.34083 10.4175 2.70657 9.81545 2.17773C9.51515 1.91397 9.35528 1.76485 9.16408 1.65527C9.00858 1.56621 8.81987 1.50002 8.50002 1.5Z" fill="#1E1E1E"/>
<path d="M5.24988 10.2502L7.74988 13.0002L11.7499 7.75024" stroke="#1E1E1E" stroke-width="1.5" stroke-linecap="round" stroke-linejoin="round"/>
</svg>
