<svg width="20" height="20" viewBox="0 0 20 20" fill="none" xmlns="http://www.w3.org/2000/svg">
<path fill-rule="evenodd" clip-rule="evenodd" d="M10 0C10.4531 3.11466e-05 10.8999 0.0308493 11.3369 0.0898438C11.8992 0.166131 12.3328 0.604785 12.4668 1.15625L12.5859 1.64746C12.7459 2.30512 13.499 2.61762 14.0771 2.26562L14.5078 2.00293C14.9926 1.70774 15.6093 1.70354 16.0605 2.04785C16.7713 2.59056 17.4076 3.22765 17.9502 3.93848C18.294 4.38953 18.2908 5.00559 17.9961 5.49023L17.7334 5.92188C17.3813 6.5001 17.6937 7.25417 18.3516 7.41406L18.8408 7.53223C19.3926 7.66617 19.8324 8.1005 19.9092 8.66309C19.9686 9.09977 20 9.54615 20 9.99902C20 10.4521 19.9688 10.899 19.9092 11.3359L19.8906 11.4395C19.7773 11.9505 19.3593 12.3387 18.8428 12.4648L18.3516 12.585C17.6938 12.7449 17.3813 13.4989 17.7334 14.0771L17.9951 14.5078C18.2901 14.9926 18.2944 15.6093 17.9502 16.0605L17.7422 16.3232C17.2472 16.9286 16.6826 17.4753 16.0605 17.9502L15.9736 18.0107C15.5914 18.2553 15.112 18.2724 14.6953 18.0928L14.5078 17.9951L14.0771 17.7334C13.499 17.3813 12.7459 17.6938 12.5859 18.3516L12.4668 18.8418L12.4023 19.043C12.222 19.4973 11.8289 19.8412 11.3369 19.9082C10.8998 19.9675 10.4532 19.999 10 19.999C9.66029 19.999 9.32402 19.981 8.99316 19.9473L8.66406 19.9082C8.10117 19.8319 7.66712 19.3928 7.5332 18.8408L7.41504 18.3516C7.25515 17.6939 6.50101 17.3816 5.92285 17.7334L5.49121 17.9961L5.30371 18.0928C4.88697 18.2725 4.40774 18.2552 4.02539 18.0107L3.93945 17.9502C3.2286 17.4076 2.59157 16.7713 2.04883 16.0605C1.70438 15.609 1.70816 14.9918 2.00391 14.5068L2.2666 14.0771C2.61846 13.4991 2.3058 12.7452 1.64844 12.585L1.15723 12.4658C0.639917 12.3402 0.222544 11.9511 0.109375 11.4395L0.0908203 11.3359C0.0315581 10.8989 1.69876e-05 10.4521 0 9.99902C3.16703e-05 9.54613 0.0316332 9.09986 0.0908203 8.66309C0.167303 8.10015 0.606014 7.66689 1.1582 7.5332L1.64844 7.41406C2.30575 7.25392 2.61823 6.49989 2.2666 5.92188L2.00391 5.49023C1.70859 5.00526 1.70429 4.38885 2.04883 3.9375C2.59153 3.22673 3.22768 2.59052 3.93848 2.04785C4.38984 1.70359 5.00637 1.70759 5.49121 2.00293L5.92285 2.26562C6.50101 2.61724 7.2552 2.30512 7.41504 1.64746L7.53418 1.15723C7.66801 0.605079 8.10101 0.165813 8.66406 0.0898438C9.10082 0.03095 9.54714 2.47569e-06 10 0ZM10 1.5C9.65419 1.5 9.31267 1.52186 8.97754 1.5625L8.87305 2V2.00098C8.48594 3.59466 6.70429 4.3767 5.2793 3.62402L5.14258 3.54688L4.75684 3.31152C4.2197 3.73331 3.73434 4.21872 3.3125 4.75586L3.54785 5.1416C4.42779 6.58713 3.64675 8.47208 2.00293 8.87207H2.00098L1.56348 8.97656C1.52253 9.31203 1.50003 9.65349 1.5 9.99902C1.50002 10.3438 1.52266 10.6846 1.56348 11.0195L2.00195 11.127H2.00293C3.64634 11.5269 4.42827 13.4115 3.54785 14.8574L3.54688 14.8584L3.3125 15.2412C3.73442 15.7785 4.22044 16.2636 4.75781 16.6855L5.14258 16.4521L5.2793 16.375C6.6585 15.6464 8.37112 16.3553 8.83105 17.8457L8.87305 17.998L8.97754 18.4346C9.31304 18.4755 9.65443 18.499 10 18.499C10.3449 18.499 10.6856 18.4754 11.0205 18.4346L11.1279 17.9971C11.5151 16.4047 13.295 15.6214 14.7207 16.375L14.8574 16.4521L15.2402 16.6855C15.7779 16.2634 16.2634 15.778 16.6855 15.2402L16.4521 14.8574C15.5713 13.4111 16.3535 11.5266 17.9971 11.127L18.4355 11.0195C18.4767 10.6842 18.5 10.3434 18.5 9.99902C18.5 9.65412 18.4767 9.31297 18.4355 8.97754L17.998 8.87207H17.9971C16.3528 8.47235 15.5717 6.58744 16.4521 5.1416L16.6855 4.75684C16.2636 4.21943 15.7785 3.73338 15.2412 3.31152L14.8584 3.5459L14.8574 3.54688C13.4114 4.42728 11.5275 3.64507 11.1279 2.00098L11.0215 1.5625C10.6867 1.52191 10.3455 1.50003 10 1.5ZM9.99902 5.99902C12.2078 5.99929 13.9988 7.79022 13.999 9.99902C13.9988 12.2078 12.2078 13.9988 9.99902 13.999C7.79022 13.9988 5.99922 12.2078 5.99902 9.99902C5.99922 7.79021 7.79022 5.99927 9.99902 5.99902ZM9.99902 7.49902C8.61864 7.49927 7.49922 8.61863 7.49902 9.99902C7.49922 11.3794 8.61864 12.4988 9.99902 12.499C11.3794 12.4988 12.4988 11.3794 12.499 9.99902C12.4988 8.61864 11.3794 7.49929 9.99902 7.49902Z" fill="#1E1E1E"/>
</svg>
