<svg width="20" height="15" viewBox="0 0 20 15" fill="none" xmlns="http://www.w3.org/2000/svg">
<path d="M18.125 0C19.1605 0 20 0.839466 20 1.875V13.125C20 14.1605 19.1605 15 18.125 15H1.875C0.839466 15 2.0133e-08 14.1605 0 13.125V1.875C0 0.839466 0.839466 3.52327e-08 1.875 0H18.125ZM6.25 13.75H18.125C18.4702 13.75 18.75 13.4702 18.75 13.125V1.875C18.75 1.52982 18.4702 1.25 18.125 1.25H6.25V13.75ZM1.875 1.25C1.52982 1.25 1.25 1.52982 1.25 1.875V13.125C1.25 13.4702 1.52982 13.75 1.875 13.75H5V1.25H1.875Z" fill="#1E1E1E" fill-opacity="0.7"/>
</svg>
