<svg width="20" height="20" viewBox="0 0 20 20" fill="none" xmlns="http://www.w3.org/2000/svg">
<path d="M10 0C15.5228 0 20 4.47715 20 10C20 15.5228 15.5228 20 10 20C4.47715 20 0 15.5228 0 10C0 4.47715 4.47715 0 10 0ZM10 1.5C5.30558 1.5 1.5 5.30558 1.5 10C1.5 14.6944 5.30558 18.5 10 18.5C14.6944 18.5 18.5 14.6944 18.5 10C18.5 5.30558 14.6944 1.5 10 1.5ZM10 3.25C10.4142 3.25 10.75 3.58579 10.75 4V5.31543C11.3676 5.41692 11.9337 5.62182 12.3672 5.81445C12.6759 5.95164 12.933 6.08883 13.1143 6.19238C13.2051 6.2443 13.278 6.28849 13.3291 6.32031C13.3546 6.33616 13.3751 6.34898 13.3896 6.3584L13.4131 6.37402L13.415 6.375V6.37598H13.416C13.7605 6.60566 13.8535 7.07141 13.624 7.41602C13.3944 7.75999 12.9294 7.85373 12.585 7.625C12.5836 7.62412 12.5801 7.6217 12.5762 7.61914C12.5681 7.61394 12.5544 7.60515 12.5361 7.59375C12.4994 7.57091 12.4431 7.5368 12.3701 7.49512C12.2233 7.4112 12.0115 7.29828 11.7578 7.18555C11.4521 7.04966 11.1052 6.92405 10.75 6.84277V9.41211C11.4197 9.59087 12.0868 9.8262 12.6348 10.1523C13.3459 10.5757 13.9998 11.2464 14 12.25C13.9998 13.3047 13.2394 13.9423 12.4951 14.2773C11.9665 14.5151 11.3516 14.6505 10.75 14.7109V16C10.75 16.4142 10.4142 16.75 10 16.75C9.5858 16.75 9.25 16.4142 9.25 16V14.6846C8.63226 14.5831 8.06629 14.3782 7.63281 14.1855C7.32414 14.0484 7.06697 13.9112 6.88574 13.8076C6.79489 13.7557 6.72204 13.7115 6.6709 13.6797C6.64543 13.6638 6.62494 13.651 6.61035 13.6416L6.58691 13.626L6.58496 13.625V13.624H6.58398C6.23949 13.3943 6.14652 12.9286 6.37598 12.584C6.59139 12.2613 7.01381 12.1594 7.34961 12.3369L7.41602 12.376C7.4174 12.3769 7.4201 12.3785 7.42383 12.3809C7.43189 12.3861 7.44555 12.3948 7.46387 12.4062C7.50058 12.4291 7.55694 12.4632 7.62988 12.5049C7.77673 12.5888 7.98855 12.7017 8.24219 12.8145C8.54797 12.9504 8.89468 13.076 9.25 13.1572V10.5879C8.58014 10.4091 7.91314 10.1738 7.36523 9.84766C6.65423 9.42423 6.00015 8.75352 6 7.75C6.00018 6.69542 6.76069 6.05772 7.50488 5.72266C8.0335 5.4848 8.64827 5.34944 9.25 5.28906V4C9.25 3.5858 9.58581 3.25002 10 3.25ZM10.75 13.2031C11.1706 13.1498 11.5656 13.0515 11.8799 12.9102C12.3848 12.6828 12.4999 12.4448 12.5 12.25C12.4999 12.0041 12.3633 11.7367 11.8672 11.4414C11.5656 11.2619 11.184 11.1075 10.75 10.9727V13.2031ZM9.25 6.79688C8.82931 6.85011 8.43441 6.94845 8.12012 7.08984C7.61554 7.31708 7.50014 7.55515 7.5 7.75C7.50012 7.99591 7.63704 8.26334 8.13281 8.55859C8.43433 8.7381 8.81591 8.89246 9.25 9.02734V6.79688Z" fill="#1E1E1E"/>
</svg>
