<svg width="20" height="17" viewBox="0 0 20 17" fill="none" xmlns="http://www.w3.org/2000/svg">
<path fill-rule="evenodd" clip-rule="evenodd" d="M17.2501 3.25107C17.6668 3.25107 18.0229 3.24515 18.3331 3.32822C19.1093 3.5364 19.7159 4.14282 19.9239 4.91904C20.0068 5.22905 20.0001 5.5847 20.0001 6.00107V14.2511C20.0001 14.6674 20.0069 15.0231 19.9239 15.3331C19.7157 16.1091 19.1091 16.7158 18.3331 16.9239C18.023 17.0069 17.6667 17.0011 17.2501 17.0011C16.8337 17.0011 16.4781 17.0069 16.1681 16.9239C15.3919 16.7158 14.7854 16.1092 14.5772 15.3331C14.4942 15.0231 14.5001 14.6675 14.5001 14.2511V6.00107C14.5001 5.5847 14.4943 5.22904 14.5772 4.91904C14.7853 4.14284 15.3919 3.53641 16.1681 3.32822C16.4781 3.24519 16.8337 3.25107 17.2501 3.25107ZM2.75009 6.25009C3.16672 6.25009 3.52296 6.24412 3.8331 6.32724C4.60907 6.53547 5.21587 7.14202 5.42392 7.91806C5.5069 8.22808 5.5001 8.58369 5.50009 9.00009V14.2501C5.50009 14.6665 5.50684 15.0221 5.42392 15.3321C5.21592 16.1082 4.60907 16.7147 3.8331 16.9229C3.52296 17.0061 3.16672 17.0001 2.75009 17.0001C2.33361 17.0001 1.97813 17.0059 1.66806 16.9229C0.891699 16.7149 0.285311 16.1085 0.0772403 15.3321C-0.00578195 15.022 8.98936e-05 14.6666 9.18859e-05 14.2501V9.00009C8.80956e-05 8.58361 -0.00579541 8.22812 0.0772403 7.91806C0.285402 7.14187 0.891819 6.53528 1.66806 6.32724C1.9781 6.2443 2.33366 6.25009 2.75009 6.25009ZM10.0001 9.42387e-05C10.4168 9.42387e-05 10.7729 -0.00587695 11.0831 0.0772427C11.8592 0.2854 12.4658 0.891961 12.6739 1.66806C12.7569 1.97809 12.7501 2.33368 12.7501 2.75009V14.2501C12.7501 14.6665 12.7569 15.0221 12.6739 15.3321C12.4659 16.1083 11.8593 16.7148 11.0831 16.9229C10.7729 17.0061 10.4169 17.0001 10.0001 17.0001C9.5835 17.0001 9.22818 17.006 8.91806 16.9229C8.14174 16.7149 7.5353 16.1085 7.32724 15.3321C7.24423 15.0221 7.25009 14.6666 7.25009 14.2501V2.75009C7.25009 2.33359 7.2442 1.97813 7.32724 1.66806C7.53537 0.891814 8.14178 0.285292 8.91806 0.0772427C9.22818 -0.00579834 9.58351 9.29651e-05 10.0001 9.42387e-05ZM17.2501 4.75107C16.7371 4.75108 16.6271 4.75735 16.5558 4.77646C16.2973 4.84596 16.0948 5.04821 16.0255 5.30674C16.0065 5.37809 16.0001 5.48908 16.0001 6.00107V14.2511C16.0001 14.7639 16.0064 14.8741 16.0255 14.9454C16.095 15.2038 16.2973 15.4063 16.5558 15.4757C16.6271 15.4948 16.7371 15.5011 17.2501 15.5011C17.7621 15.5011 17.8731 15.4947 17.9444 15.4757C18.2029 15.4064 18.4051 15.2038 18.4747 14.9454C18.4938 14.8741 18.5001 14.7639 18.5001 14.2511V6.00107C18.5001 5.4886 18.4937 5.37809 18.4747 5.30674C18.4053 5.04803 18.2032 4.8458 17.9444 4.77646C17.8731 4.75741 17.7627 4.75107 17.2501 4.75107ZM2.75009 7.75009C2.23778 7.7501 2.12711 7.75645 2.05576 7.77549C1.79719 7.84483 1.59495 8.04725 1.52548 8.30576C1.50637 8.37709 1.5001 8.48705 1.50009 9.00009V14.2501C1.50009 14.7629 1.5064 14.8731 1.52548 14.9444C1.59488 15.2031 1.79709 15.4053 2.05576 15.4747C2.12711 15.4938 2.23743 15.5001 2.75009 15.5001C3.26295 15.5001 3.3731 15.4938 3.44443 15.4747C3.70293 15.4053 3.90531 15.203 3.9747 14.9444C3.99375 14.8731 4.00009 14.7624 4.00009 14.2501V9.00009C4.00009 8.48705 3.99382 8.37709 3.9747 8.30576C3.90528 8.04723 3.70297 7.84488 3.44443 7.77549C3.3731 7.75638 3.263 7.7501 2.75009 7.75009ZM10.0001 1.50009C9.48693 1.5001 9.3771 1.50637 9.30576 1.52548C9.04715 1.59484 8.84492 1.79719 8.77548 2.05576C8.75636 2.12709 8.75009 2.23702 8.75009 2.75009V14.2501C8.75009 14.7627 8.75641 14.8731 8.77548 14.9444C8.84489 15.203 9.04714 15.4053 9.30576 15.4747C9.3771 15.4938 9.48682 15.5001 10.0001 15.5001C10.5132 15.5001 10.6231 15.4938 10.6944 15.4747C10.9531 15.4054 11.1553 15.2031 11.2247 14.9444C11.2438 14.8731 11.2501 14.7627 11.2501 14.2501V2.75009C11.2501 2.23702 11.2438 2.12709 11.2247 2.05576C11.1552 1.79717 10.9531 1.5948 10.6944 1.52548C10.6231 1.50639 10.5131 1.50009 10.0001 1.50009Z" fill="#1E1E1E"/>
</svg>
